<svg xmlns="http://www.w3.org/2000/svg" width="76.94mm" height="80.95mm" viewBox="0 0 218.09 229.45"><title>アセット 2</title><path d="M43.81,62.59c1.86,0,4.08-2,5.4-3.12,8.88-7.92,9.78-8.7,12.06-8.7,1.86,0,3.24,1,4.62,2.16,4,3.42,8,6.78,12,10.14,4.2,3.6,9.12,6.18,14,8.7,4,2,4,4.5,4,4.68,0,1.26-1.14,1.26-1.56,1.26a8,8,0,0,1-3.66-1.56A150.11,150.11,0,0,1,75.36,64.87C73.21,63,63.73,54.55,62.89,54.07a3.19,3.19,0,0,0-1.74-.48c-2.1,0-5.82,3.66-10.86,9.24-.54.54-2.64,3.06-3.18,3.48a2.34,2.34,0,0,1-1.38.48,5.89,5.89,0,0,1-5.16-5.1A6.54,6.54,0,0,0,43.81,62.59Z" fill="#231815"/><path d="M64.3,116.16C82.24,110,83.08,97.08,83.08,94c0-10.5-10-16.14-18.78-16.14a6,6,0,0,0-2.22.3C65,80.58,65,82.38,65,82.68c0,.72-.18,1-1.44,3.6-7.32,15.36-8,16.86-11.4,22-.3.42-2.22,3.24-3.42,3.72a2.6,2.6,0,0,1-1.14.24c-1.38,0-1.8-.66-3.48-3.06a8.16,8.16,0,0,0-1.62-1.62c-2.34-1.92-3.12-4-3.12-8.1C39.4,87.36,49.54,76,64.9,76c11,0,21.84,6.24,21.84,18.66,0,11-8.82,20.82-22.32,22.14ZM57.52,92.82c1.8-3.36,3.54-8,3.54-10.44a5.59,5.59,0,0,0-1.68-3.84c-6.72.54-16.86,9.42-16.86,21.18,0,4.56,2.88,8.58,5.22,8.58a1.51,1.51,0,0,0,1.14-.42,23.7,23.7,0,0,0,3.48-5.28Z" fill="#231815"/><path d="M123.36,70.07c1.86,0,4.08-2,5.4-3.12,8.88-7.92,9.78-8.7,12.06-8.7,1.86,0,3.24,1,4.62,2.16,4,3.42,8,6.78,12,10.14,4.2,3.6,9.12,6.18,14,8.7,4,2,4,4.5,4,4.68,0,1.26-1.14,1.26-1.56,1.26a8,8,0,0,1-3.66-1.56,149,149,0,0,1-15.36-11.28c-2.16-1.92-11.64-10.32-12.48-10.8a3.19,3.19,0,0,0-1.74-.48c-2.1,0-5.82,3.66-10.86,9.24-.54.54-2.64,3.06-3.18,3.48a2.34,2.34,0,0,1-1.38.48,5.89,5.89,0,0,1-5.16-5.1A6.54,6.54,0,0,0,123.36,70.07Z" fill="#231815"/><path d="M149,119c17.94-6.18,18.78-19.08,18.78-22.2,0-10.5-10-16.14-18.78-16.14a6,6,0,0,0-2.22.3c2.94,2.46,2.94,4.26,2.94,4.56,0,.72-.18,1-1.44,3.6-7.32,15.36-8,16.86-11.4,22-.3.42-2.22,3.24-3.42,3.72a2.6,2.6,0,0,1-1.14.24c-1.38,0-1.8-.66-3.48-3.06a8.16,8.16,0,0,0-1.62-1.62c-2.34-1.92-3.12-4-3.12-8.1,0-12.06,10.14-23.4,25.5-23.4,11,0,21.84,6.24,21.84,18.66,0,11-8.82,20.82-22.32,22.14ZM142.21,95.7c1.8-3.36,3.54-8,3.54-10.44a5.59,5.59,0,0,0-1.68-3.84c-6.72.54-16.86,9.42-16.86,21.18,0,4.56,2.88,8.58,5.22,8.58a1.51,1.51,0,0,0,1.14-.42,23.7,23.7,0,0,0,3.48-5.28Z" fill="#231815"/><path d="M105.65,138.14c3.8,2.34,10.13,6.28,10.13,13.36s-6.89,9-10.22,9a10.29,10.29,0,0,1-7.74-3.28c-1.31-1.59-1.69-4.08-1.69-6.09a27.13,27.13,0,0,1,.52-4.64c-3-1.32-6.05-3.24-6.05-6,0-2,1.08-2.86,5-5.95.37-.29.47-.47.47-.75s0-.43-.47-.71c-3.42-2.25-3.8-2.53-4.27-3.33a3.72,3.72,0,0,1-.51-2.11c2.25,2.54,6.37,3.85,8.67,4.36A51.56,51.56,0,0,0,101,123.6c0-1.78-1.54-3-2.53-3.75a5,5,0,0,1,1.36-.23c2.39,0,4.74,2.48,4.74,3.84,0,.43,0,.66-.8,2.35a44.79,44.79,0,0,0-2.25,6.75,2,2,0,0,1,1.26,1.83c0,.94-.6.89-2,.8-.24,1-1.32,5.39-2.07,9.56a19.24,19.24,0,0,0,3.61.38c1.74,0,3.1,1.17,3.1,2.11,0,.65-.52.84-2.11.84a15.74,15.74,0,0,1-5-.94,22.51,22.51,0,0,0-.23,3.19,8.8,8.8,0,0,0,1.26,5.16,7.44,7.44,0,0,0,6.14,2.95,7.19,7.19,0,0,0,7.46-7.27c0-3.65-2.81-9.19-7.5-12.75Zm-9.52-2.58c-1.92,1.13-3.75,3.24-3.75,5,0,2.15,2.49,3.19,4.6,3.8a89.74,89.74,0,0,1,1.83-9.29A4,4,0,0,0,96.13,135.56Z" fill="#231815"/><path d="M78.46,189.12c1.86,0,4.08-2,5.4-3.12,8.87-7.91,9.77-8.69,12-8.69,1.86,0,3.24,1,4.62,2.16,4,3.42,8,6.77,12,10.13,4.2,3.6,9.12,6.18,14,8.7,4,2,4,4.5,4,4.68,0,1.26-1.14,1.26-1.56,1.26a8,8,0,0,1-3.66-1.56A149,149,0,0,1,110,191.4c-2.16-1.92-11.64-10.31-12.48-10.79a3.11,3.11,0,0,0-1.74-.48c-2.1,0-5.82,3.65-10.85,9.24-.54.53-2.64,3-3.18,3.47a2.34,2.34,0,0,1-1.38.48,5.89,5.89,0,0,1-5.16-5.1A6.54,6.54,0,0,0,78.46,189.12Z" fill="#231815"/><ellipse cx="109.05" cy="119.55" rx="108.55" ry="109.4" fill="none" stroke="#231815" stroke-miterlimit="10"/><path d="M92.33,19.78c-1.73,2-2.5,3.36-2.5,5,0,6.72,8.83,10.7,17.33,10.7,9,0,17.33-4.32,17.33-10.56,0-1.68-.58-3-2.5-5.18v-.29c2.74.58,5,3.89,5,6.86,0,8.07-11,13.4-19.83,13.4-9.07,0-19.83-5.62-19.83-13.25,0-3.31,2.36-6.48,5-7Zm8.16-17.14c-1.63,3-1.78,4.51-1.78,5.18a16.75,16.75,0,0,0,1.49,5.53A18,18,0,0,1,102,20.26c0,3.36-2.07,6.29-4.76,8.4L97,28.51a12.25,12.25,0,0,0,2.26-6.57c0-2.45-.67-3.79-2.26-7.11a10,10,0,0,1-1.15-4.27c0-2.74,2.07-6.72,4.51-8.06ZM109,.14c-1.24,2.07-2.25,4.47-2.25,6.1a12.26,12.26,0,0,0,1.87,5.81A15.78,15.78,0,0,1,111,20c0,6-4,9.41-5.85,10.9l-.24-.1c2.06-3.5,2.88-4.9,2.88-8.35a18.68,18.68,0,0,0-2.31-9.07A11.73,11.73,0,0,1,104,8.4c0-2.93,2.45-7.3,4.85-8.4Zm8.88,1.64c-1.15,1.63-2.54,3.6-2.54,5.76a12,12,0,0,0,1.73,5.33,13.22,13.22,0,0,1,1.77,5.85c0,3.6-2.25,6.67-5.08,8.93l-.24-.14C116,23.71,116,21,116,20.5a12.7,12.7,0,0,0-1.63-5.38c-.86-1.92-1.78-3.84-1.78-5.71,0-2.93,2.69-6.53,5-7.78Z" fill="#231815"/><ellipse cx="62.92" cy="98.47" rx="32.82" ry="32.81" fill="none" stroke="#231815" stroke-miterlimit="10" stroke-width="1.02"/><ellipse cx="147.35" cy="102.84" rx="29.89" ry="29.37" fill="none" stroke="#231815" stroke-miterlimit="10" stroke-width="0.92"/><path d="M95.23,105.72a14,14,0,0,1,8.31-5.17,14.35,14.35,0,0,1,13.65,5.69" fill="none" stroke="#231815" stroke-miterlimit="10" stroke-width="1.26"/></svg>